<mxfile host="app.diagrams.net" modified="2023-04-13T13:21:13.347Z" agent="Mozilla/5.0 (Windows NT 10.0; Win64; x64) AppleWebKit/537.36 (KHTML, like Gecko) Chrome/112.0.0.0 Safari/537.36" etag="9U-wYrGc9T1oWE_uodlG" version="21.1.7" type="github">
  <diagram id="R2lEEEUBdFMjLlhIrx00" name="Geheimdienst_DB">
    <mxGraphModel dx="794" dy="442" grid="0" gridSize="10" guides="1" tooltips="1" connect="1" arrows="1" fold="1" page="1" pageScale="1" pageWidth="850" pageHeight="1100" math="0" shadow="0" extFonts="Permanent Marker^https://fonts.googleapis.com/css?family=Permanent+Marker">
      <root>
        <mxCell id="0" />
        <mxCell id="1" parent="0" />
        <mxCell id="OJ2EKgPXCR7FoD_1R-Q--1" value="Handy" style="whiteSpace=wrap;html=1;align=center;" parent="1" vertex="1">
          <mxGeometry x="22" y="418" width="110" height="40" as="geometry" />
        </mxCell>
        <mxCell id="TxBuRN6KzdCoiCXbXC8P-6" value="1" style="edgeStyle=orthogonalEdgeStyle;rounded=0;orthogonalLoop=1;jettySize=auto;html=1;entryX=0.5;entryY=1;entryDx=0;entryDy=0;endArrow=none;endFill=0;" parent="1" source="OJ2EKgPXCR7FoD_1R-Q--3" target="TxBuRN6KzdCoiCXbXC8P-5" edge="1">
          <mxGeometry relative="1" as="geometry" />
        </mxCell>
        <mxCell id="OJ2EKgPXCR7FoD_1R-Q--3" value="Land" style="whiteSpace=wrap;html=1;align=center;" parent="1" vertex="1">
          <mxGeometry x="342" y="240" width="110" height="40" as="geometry" />
        </mxCell>
        <mxCell id="OJ2EKgPXCR7FoD_1R-Q--4" value="Landesvorwahl" style="whiteSpace=wrap;html=1;align=center;" parent="1" vertex="1">
          <mxGeometry x="412" y="80" width="110" height="40" as="geometry" />
        </mxCell>
        <mxCell id="OJ2EKgPXCR7FoD_1R-Q--5" value="Region" style="whiteSpace=wrap;html=1;align=center;" parent="1" vertex="1">
          <mxGeometry x="672" y="90" width="110" height="40" as="geometry" />
        </mxCell>
        <mxCell id="OJ2EKgPXCR7FoD_1R-Q--6" value="Person" style="whiteSpace=wrap;html=1;align=center;" parent="1" vertex="1">
          <mxGeometry x="22" y="630" width="110" height="40" as="geometry" />
        </mxCell>
        <mxCell id="OJ2EKgPXCR7FoD_1R-Q--7" value="Ortung" style="whiteSpace=wrap;html=1;align=center;" parent="1" vertex="1">
          <mxGeometry x="322" y="368" width="110" height="40" as="geometry" />
        </mxCell>
        <mxCell id="TxBuRN6KzdCoiCXbXC8P-22" value="" style="edgeStyle=orthogonalEdgeStyle;shape=connector;rounded=0;orthogonalLoop=1;jettySize=auto;html=1;entryX=1;entryY=0.25;entryDx=0;entryDy=0;labelBackgroundColor=default;strokeColor=default;fontFamily=Helvetica;fontSize=11;fontColor=default;endArrow=none;endFill=0;" parent="1" source="OJ2EKgPXCR7FoD_1R-Q--8" target="OJ2EKgPXCR7FoD_1R-Q--7" edge="1">
          <mxGeometry relative="1" as="geometry">
            <mxPoint as="offset" />
          </mxGeometry>
        </mxCell>
        <mxCell id="TxBuRN6KzdCoiCXbXC8P-32" value="n" style="edgeStyle=orthogonalEdgeStyle;shape=connector;rounded=0;orthogonalLoop=1;jettySize=auto;html=1;labelBackgroundColor=default;strokeColor=default;fontFamily=Helvetica;fontSize=11;fontColor=default;endArrow=none;endFill=0;" parent="1" source="OJ2EKgPXCR7FoD_1R-Q--8" target="TxBuRN6KzdCoiCXbXC8P-29" edge="1">
          <mxGeometry relative="1" as="geometry" />
        </mxCell>
        <mxCell id="OJ2EKgPXCR7FoD_1R-Q--8" value="Koordinaten" style="whiteSpace=wrap;html=1;align=center;" parent="1" vertex="1">
          <mxGeometry x="562" y="418" width="110" height="40" as="geometry" />
        </mxCell>
        <mxCell id="TxBuRN6KzdCoiCXbXC8P-9" value="n" style="edgeStyle=orthogonalEdgeStyle;shape=connector;rounded=0;orthogonalLoop=1;jettySize=auto;html=1;labelBackgroundColor=default;strokeColor=default;fontFamily=Helvetica;fontSize=11;fontColor=default;endArrow=none;endFill=0;entryX=1;entryY=0.5;entryDx=0;entryDy=0;" parent="1" source="OJ2EKgPXCR7FoD_1R-Q--9" target="TxBuRN6KzdCoiCXbXC8P-8" edge="1">
          <mxGeometry relative="1" as="geometry">
            <mxPoint x="652" y="270" as="targetPoint" />
          </mxGeometry>
        </mxCell>
        <mxCell id="OJ2EKgPXCR7FoD_1R-Q--9" value="Stadt" style="whiteSpace=wrap;html=1;align=center;" parent="1" vertex="1">
          <mxGeometry x="682" y="320" width="110" height="40" as="geometry" />
        </mxCell>
        <mxCell id="OJ2EKgPXCR7FoD_1R-Q--10" value="Gespräch" style="whiteSpace=wrap;html=1;align=center;" parent="1" vertex="1">
          <mxGeometry x="282" y="560" width="110" height="40" as="geometry" />
        </mxCell>
        <mxCell id="TxBuRN6KzdCoiCXbXC8P-3" value="n" style="edgeStyle=orthogonalEdgeStyle;rounded=0;orthogonalLoop=1;jettySize=auto;html=1;entryX=1;entryY=0.5;entryDx=0;entryDy=0;endArrow=none;endFill=0;" parent="1" source="TxBuRN6KzdCoiCXbXC8P-2" target="OJ2EKgPXCR7FoD_1R-Q--3" edge="1">
          <mxGeometry relative="1" as="geometry" />
        </mxCell>
        <mxCell id="TxBuRN6KzdCoiCXbXC8P-4" value="1" style="edgeStyle=orthogonalEdgeStyle;rounded=0;orthogonalLoop=1;jettySize=auto;html=1;entryX=0.5;entryY=0;entryDx=0;entryDy=0;endArrow=none;endFill=0;" parent="1" source="TxBuRN6KzdCoiCXbXC8P-2" target="OJ2EKgPXCR7FoD_1R-Q--5" edge="1">
          <mxGeometry relative="1" as="geometry" />
        </mxCell>
        <mxCell id="TxBuRN6KzdCoiCXbXC8P-2" value="gehört zu" style="shape=rhombus;perimeter=rhombusPerimeter;whiteSpace=wrap;html=1;align=center;" parent="1" vertex="1">
          <mxGeometry x="512" y="140" width="120" height="60" as="geometry" />
        </mxCell>
        <mxCell id="TxBuRN6KzdCoiCXbXC8P-7" value="1" style="edgeStyle=orthogonalEdgeStyle;rounded=0;orthogonalLoop=1;jettySize=auto;html=1;entryX=0.5;entryY=1;entryDx=0;entryDy=0;endArrow=none;endFill=0;" parent="1" source="TxBuRN6KzdCoiCXbXC8P-5" target="OJ2EKgPXCR7FoD_1R-Q--4" edge="1">
          <mxGeometry relative="1" as="geometry" />
        </mxCell>
        <mxCell id="TxBuRN6KzdCoiCXbXC8P-5" value="hat" style="shape=rhombus;perimeter=rhombusPerimeter;whiteSpace=wrap;html=1;align=center;" parent="1" vertex="1">
          <mxGeometry x="392" y="150" width="80" height="40" as="geometry" />
        </mxCell>
        <mxCell id="TxBuRN6KzdCoiCXbXC8P-26" value="1" style="edgeStyle=orthogonalEdgeStyle;shape=connector;rounded=0;orthogonalLoop=1;jettySize=auto;html=1;entryX=1;entryY=0.75;entryDx=0;entryDy=0;labelBackgroundColor=default;strokeColor=default;fontFamily=Helvetica;fontSize=11;fontColor=default;endArrow=none;endFill=0;" parent="1" source="TxBuRN6KzdCoiCXbXC8P-8" target="OJ2EKgPXCR7FoD_1R-Q--3" edge="1">
          <mxGeometry relative="1" as="geometry" />
        </mxCell>
        <mxCell id="TxBuRN6KzdCoiCXbXC8P-8" value="ist in" style="shape=rhombus;perimeter=rhombusPerimeter;whiteSpace=wrap;html=1;align=center;fontFamily=Helvetica;fontSize=11;fontColor=default;" parent="1" vertex="1">
          <mxGeometry x="552" y="250" width="80" height="40" as="geometry" />
        </mxCell>
        <mxCell id="TxBuRN6KzdCoiCXbXC8P-39" value="m" style="edgeStyle=orthogonalEdgeStyle;shape=connector;rounded=0;orthogonalLoop=1;jettySize=auto;html=1;entryX=0.5;entryY=1;entryDx=0;entryDy=0;labelBackgroundColor=default;strokeColor=default;fontFamily=Helvetica;fontSize=11;fontColor=default;endArrow=none;endFill=0;" parent="1" source="TxBuRN6KzdCoiCXbXC8P-15" target="OJ2EKgPXCR7FoD_1R-Q--1" edge="1">
          <mxGeometry relative="1" as="geometry" />
        </mxCell>
        <mxCell id="TxBuRN6KzdCoiCXbXC8P-40" value="n" style="edgeStyle=orthogonalEdgeStyle;shape=connector;rounded=0;orthogonalLoop=1;jettySize=auto;html=1;labelBackgroundColor=default;strokeColor=default;fontFamily=Helvetica;fontSize=11;fontColor=default;endArrow=none;endFill=0;" parent="1" source="TxBuRN6KzdCoiCXbXC8P-15" target="OJ2EKgPXCR7FoD_1R-Q--6" edge="1">
          <mxGeometry relative="1" as="geometry" />
        </mxCell>
        <mxCell id="TxBuRN6KzdCoiCXbXC8P-15" value="Benutzung" style="shape=rhombus;perimeter=rhombusPerimeter;whiteSpace=wrap;html=1;align=center;fontFamily=Helvetica;fontSize=11;fontColor=default;" parent="1" vertex="1">
          <mxGeometry x="37" y="530" width="80" height="40" as="geometry" />
        </mxCell>
        <mxCell id="TxBuRN6KzdCoiCXbXC8P-20" value="n" style="edgeStyle=orthogonalEdgeStyle;shape=connector;rounded=0;orthogonalLoop=1;jettySize=auto;html=1;entryX=0.5;entryY=0;entryDx=0;entryDy=0;labelBackgroundColor=default;strokeColor=default;fontFamily=Helvetica;fontSize=11;fontColor=default;endArrow=none;endFill=0;" parent="1" source="TxBuRN6KzdCoiCXbXC8P-19" target="OJ2EKgPXCR7FoD_1R-Q--7" edge="1">
          <mxGeometry relative="1" as="geometry" />
        </mxCell>
        <mxCell id="TxBuRN6KzdCoiCXbXC8P-21" value="1" style="edgeStyle=orthogonalEdgeStyle;shape=connector;rounded=0;orthogonalLoop=1;jettySize=auto;html=1;labelBackgroundColor=default;strokeColor=default;fontFamily=Helvetica;fontSize=11;fontColor=default;endArrow=none;endFill=0;entryX=0.5;entryY=0;entryDx=0;entryDy=0;" parent="1" source="TxBuRN6KzdCoiCXbXC8P-19" target="OJ2EKgPXCR7FoD_1R-Q--1" edge="1">
          <mxGeometry relative="1" as="geometry">
            <mxPoint x="137" y="377" as="targetPoint" />
          </mxGeometry>
        </mxCell>
        <mxCell id="TxBuRN6KzdCoiCXbXC8P-19" value="geortet" style="shape=rhombus;perimeter=rhombusPerimeter;whiteSpace=wrap;html=1;align=center;fontFamily=Helvetica;fontSize=11;fontColor=default;" parent="1" vertex="1">
          <mxGeometry x="202" y="318" width="80" height="40" as="geometry" />
        </mxCell>
        <mxCell id="TxBuRN6KzdCoiCXbXC8P-30" value="1" style="edgeStyle=orthogonalEdgeStyle;shape=connector;rounded=0;orthogonalLoop=1;jettySize=auto;html=1;entryX=0.5;entryY=1;entryDx=0;entryDy=0;labelBackgroundColor=default;strokeColor=default;fontFamily=Helvetica;fontSize=11;fontColor=default;endArrow=none;endFill=0;" parent="1" source="TxBuRN6KzdCoiCXbXC8P-29" target="OJ2EKgPXCR7FoD_1R-Q--9" edge="1">
          <mxGeometry relative="1" as="geometry" />
        </mxCell>
        <mxCell id="TxBuRN6KzdCoiCXbXC8P-31" value="1" style="edgeStyle=orthogonalEdgeStyle;shape=connector;rounded=0;orthogonalLoop=1;jettySize=auto;html=1;entryX=0.5;entryY=1;entryDx=0;entryDy=0;labelBackgroundColor=default;strokeColor=default;fontFamily=Helvetica;fontSize=11;fontColor=default;endArrow=none;endFill=0;" parent="1" source="TxBuRN6KzdCoiCXbXC8P-29" target="OJ2EKgPXCR7FoD_1R-Q--3" edge="1">
          <mxGeometry relative="1" as="geometry" />
        </mxCell>
        <mxCell id="TxBuRN6KzdCoiCXbXC8P-29" value="gehört zu" style="shape=rhombus;perimeter=rhombusPerimeter;whiteSpace=wrap;html=1;align=center;fontFamily=Helvetica;fontSize=11;fontColor=default;" parent="1" vertex="1">
          <mxGeometry x="502" y="310" width="80" height="40" as="geometry" />
        </mxCell>
        <mxCell id="TxBuRN6KzdCoiCXbXC8P-33" value="Audiodatei" style="whiteSpace=wrap;html=1;align=center;fontFamily=Helvetica;fontSize=11;fontColor=default;" parent="1" vertex="1">
          <mxGeometry x="602" y="560" width="100" height="40" as="geometry" />
        </mxCell>
        <mxCell id="TxBuRN6KzdCoiCXbXC8P-38" value="1" style="edgeStyle=orthogonalEdgeStyle;shape=connector;rounded=0;orthogonalLoop=1;jettySize=auto;html=1;entryX=1;entryY=0.5;entryDx=0;entryDy=0;labelBackgroundColor=default;strokeColor=default;fontFamily=Helvetica;fontSize=11;fontColor=default;endArrow=none;endFill=0;" parent="1" source="TxBuRN6KzdCoiCXbXC8P-36" target="OJ2EKgPXCR7FoD_1R-Q--10" edge="1">
          <mxGeometry relative="1" as="geometry" />
        </mxCell>
        <mxCell id="TxBuRN6KzdCoiCXbXC8P-41" value="1" style="edgeStyle=orthogonalEdgeStyle;shape=connector;rounded=0;orthogonalLoop=1;jettySize=auto;html=1;entryX=0;entryY=0.5;entryDx=0;entryDy=0;labelBackgroundColor=default;strokeColor=default;fontFamily=Helvetica;fontSize=11;fontColor=default;endArrow=none;endFill=0;" parent="1" source="TxBuRN6KzdCoiCXbXC8P-36" target="TxBuRN6KzdCoiCXbXC8P-33" edge="1">
          <mxGeometry relative="1" as="geometry" />
        </mxCell>
        <mxCell id="TxBuRN6KzdCoiCXbXC8P-36" value="referenziert" style="shape=rhombus;perimeter=rhombusPerimeter;whiteSpace=wrap;html=1;align=center;fontFamily=Helvetica;fontSize=11;fontColor=default;" parent="1" vertex="1">
          <mxGeometry x="442" y="560" width="80" height="40" as="geometry" />
        </mxCell>
        <mxCell id="TxBuRN6KzdCoiCXbXC8P-47" style="edgeStyle=orthogonalEdgeStyle;shape=connector;rounded=0;orthogonalLoop=1;jettySize=auto;html=1;entryX=1;entryY=0.5;entryDx=0;entryDy=0;labelBackgroundColor=default;strokeColor=default;fontFamily=Helvetica;fontSize=11;fontColor=default;endArrow=none;endFill=0;" parent="1" source="TxBuRN6KzdCoiCXbXC8P-42" target="OJ2EKgPXCR7FoD_1R-Q--1" edge="1">
          <mxGeometry relative="1" as="geometry" />
        </mxCell>
        <mxCell id="TxBuRN6KzdCoiCXbXC8P-48" style="edgeStyle=orthogonalEdgeStyle;shape=connector;rounded=0;orthogonalLoop=1;jettySize=auto;html=1;entryX=0.5;entryY=0;entryDx=0;entryDy=0;labelBackgroundColor=default;strokeColor=default;fontFamily=Helvetica;fontSize=11;fontColor=default;endArrow=none;endFill=0;" parent="1" source="TxBuRN6KzdCoiCXbXC8P-42" target="OJ2EKgPXCR7FoD_1R-Q--10" edge="1">
          <mxGeometry relative="1" as="geometry" />
        </mxCell>
        <mxCell id="TxBuRN6KzdCoiCXbXC8P-42" value="anrufend" style="shape=rhombus;perimeter=rhombusPerimeter;whiteSpace=wrap;html=1;align=center;fontFamily=Helvetica;fontSize=11;fontColor=default;" parent="1" vertex="1">
          <mxGeometry x="232" y="458" width="80" height="40" as="geometry" />
        </mxCell>
        <mxCell id="TxBuRN6KzdCoiCXbXC8P-45" style="edgeStyle=orthogonalEdgeStyle;shape=connector;rounded=0;orthogonalLoop=1;jettySize=auto;html=1;entryX=1;entryY=0.75;entryDx=0;entryDy=0;labelBackgroundColor=default;strokeColor=default;fontFamily=Helvetica;fontSize=11;fontColor=default;endArrow=none;endFill=0;" parent="1" source="TxBuRN6KzdCoiCXbXC8P-44" target="OJ2EKgPXCR7FoD_1R-Q--1" edge="1">
          <mxGeometry relative="1" as="geometry" />
        </mxCell>
        <mxCell id="TxBuRN6KzdCoiCXbXC8P-46" style="edgeStyle=orthogonalEdgeStyle;shape=connector;rounded=0;orthogonalLoop=1;jettySize=auto;html=1;entryX=0;entryY=0.5;entryDx=0;entryDy=0;labelBackgroundColor=default;strokeColor=default;fontFamily=Helvetica;fontSize=11;fontColor=default;endArrow=none;endFill=0;" parent="1" source="TxBuRN6KzdCoiCXbXC8P-44" target="OJ2EKgPXCR7FoD_1R-Q--10" edge="1">
          <mxGeometry relative="1" as="geometry" />
        </mxCell>
        <mxCell id="TxBuRN6KzdCoiCXbXC8P-44" value="angerufen" style="shape=rhombus;perimeter=rhombusPerimeter;whiteSpace=wrap;html=1;align=center;fontFamily=Helvetica;fontSize=11;fontColor=default;" parent="1" vertex="1">
          <mxGeometry x="162" y="530" width="80" height="40" as="geometry" />
        </mxCell>
      </root>
    </mxGraphModel>
  </diagram>
</mxfile>
